<svg xmlns="http://www.w3.org/2000/svg" width="18.876" height="18.871" viewBox="0 0 18.876 18.871">
  <path id="Vector" d="M9.44,4.6a4.838,4.838,0,1,0,4.838,4.838A4.831,4.831,0,0,0,9.44,4.6Zm0,7.984a3.146,3.146,0,1,1,3.146-3.146A3.151,3.151,0,0,1,9.44,12.581ZM15.6,4.4a1.129,1.129,0,1,1-1.129-1.129A1.126,1.126,0,0,1,15.6,4.4Zm3.2,1.145a5.585,5.585,0,0,0-1.524-3.954A5.622,5.622,0,0,0,13.331.066C11.773-.022,7.1-.022,5.545.066a5.613,5.613,0,0,0-3.954,1.52A5.6,5.6,0,0,0,.066,5.541c-.088,1.558-.088,6.228,0,7.786a5.585,5.585,0,0,0,1.524,3.954,5.629,5.629,0,0,0,3.954,1.524c1.558.088,6.228.088,7.786,0a5.585,5.585,0,0,0,3.954-1.524,5.622,5.622,0,0,0,1.524-3.954c.088-1.558.088-6.224,0-7.782ZM16.8,15A3.185,3.185,0,0,1,15,16.792c-1.242.493-4.19.379-5.563.379s-4.325.109-5.563-.379A3.185,3.185,0,0,1,2.083,15c-.493-1.242-.379-4.19-.379-5.563s-.109-4.325.379-5.563A3.185,3.185,0,0,1,3.877,2.079C5.119,1.586,8.067,1.7,9.44,1.7s4.325-.109,5.563.379A3.185,3.185,0,0,1,16.8,3.873c.493,1.242.379,4.19.379,5.563S17.289,13.76,16.8,15Z" fill="#fff"/>
</svg>
