<svg xmlns="http://www.w3.org/2000/svg" width="19.877" height="19" viewBox="0 0 19.877 19">
  <path id="Path_38350" data-name="Path 38350" d="M4.51,19V6.18H.249V19ZM2.38,4.428A2.222,2.222,0,1,0,2.409,0a2.221,2.221,0,1,0-.056,4.429H2.38ZM6.869,19h4.261V11.84a2.92,2.92,0,0,1,.14-1.04,2.332,2.332,0,0,1,2.186-1.558c1.542,0,2.159,1.176,2.159,2.9V19h4.261v-7.35c0-3.938-2.1-5.77-4.905-5.77A4.244,4.244,0,0,0,11.1,8.039h.028V6.179H6.869c.056,1.2,0,12.819,0,12.819Z" transform="translate(0.002 0.001)" fill="#fff"/>
</svg>
